<?xml version="1.0"?>
<!-- Converted with SVG Converter - Version 0.9.5 (Compiled Mon May 30 09:08:51 2011) - Copyright (C) 2011 Nokia -->
<svg xmlns="http://www.w3.org/2000/svg" width="96px" x="0px" version="1.1" y="0px" height="96px" viewBox="0 0 96 96" xmlns:xlink="http://www.w3.org/1999/xlink" baseProfile="tiny" xml:space="preserve">
 <g id="DO_NOT_EDIT_-_BOUNDING_BOX">
  <rect width="96" fill="none" height="96" id="BOUNDING_BOX"/>
 </g>
 <g id="DO_NOT_EDIT_-_SHADOW">
  <path stroke-opacity="0.4" fill-opacity="0.4" id="SHADOW" d="M88.023,49c0,29.633-10.364,40-40,40c-29.635,0-40-10.367-40-40c0-29.634,10.366-40,40-40&#xd;&#xa;&#x9;&#x9;C77.659,9,88.023,19.365,88.023,49z"/>
 </g>
 <g display="none" id="GRAY_BACKGROUNDS">
  <g display="inline" id="GRAY5">
   <linearGradient id="GRAY_5_1_" y1="8.0107" x1="47.9995" y2="87.9897" gradientUnits="userSpaceOnUse" x2="47.9995">
    <stop offset="0.0364" style="stop-color:#DDDDDD"/>
    <stop offset="0.4616" style="stop-color:#BFBFC1"/>
    <stop offset="1" style="stop-color:#949499"/>
   </linearGradient>
   <path fill="url(#GRAY_5_1_)" fill-rule="evenodd" id="GRAY_5" d="M8,47.989c0,29.633,10.365,40,40,40&#xd;&#xa;&#x9;&#x9;&#x9;c29.637,0,40-10.367,40-40c0-28.985-9.926-39.53-38.091-39.979h-3.817C17.928,8.459,8,19.004,8,47.989z"/>
   <linearGradient id="HIGHLIGHT_GRA5_1_" y1="8" x1="47.9995" y2="88.0005" gradientUnits="userSpaceOnUse" x2="47.9995">
    <stop offset="0.0364" style="stop-color:#FFFFFF"/>
    <stop offset="0.3366" style="stop-color:#E1E1E3"/>
    <stop offset="0.9874" style="stop-color:#96969A"/>
    <stop offset="1" style="stop-color:#949499"/>
   </linearGradient>
   <path stroke-opacity="0.25" fill="url(#HIGHLIGHT_GRA5_1_)" fill-opacity="0.25" id="HIGHLIGHT_GRA5" d="M48,8C18.365,8,8,18.365,8,48&#xd;&#xa;&#x9;&#x9;&#x9;c0,29.633,10.365,40,40,40c29.637,0,40-10.367,40-40C88,18.365,77.637,8,48,8z M48,87.023C18.842,87.023,9,77.176,9,48&#xd;&#xa;&#x9;&#x9;&#x9;S18.842,8.977,48,8.977S87,18.824,87,48S77.158,87.023,48,87.023z"/>
  </g>
  <g id="GRAY4">
   <linearGradient id="GRAY_4_1_" y1="8.0107" x1="47.9995" y2="87.9897" gradientUnits="userSpaceOnUse" x2="47.9995">
    <stop offset="0.0364" style="stop-color:#E0E0E0"/>
    <stop offset="0.3262" style="stop-color:#D6D6D6"/>
    <stop offset="0.8148" style="stop-color:#BCBCBC"/>
    <stop offset="1" style="stop-color:#B0B0B0"/>
   </linearGradient>
   <path fill="url(#GRAY_4_1_)" display="inline" fill-rule="evenodd" id="GRAY_4" d="M8,47.989&#xd;&#xa;&#x9;&#x9;&#x9;c0,29.633,10.365,40,40,40c29.637,0,40-10.367,40-40c0-28.985-9.926-39.53-38.091-39.979h-3.817C17.928,8.459,8,19.004,8,47.989z"/>
   <linearGradient id="HIGHLIGHT_GRA4_2_" y1="8" x1="47.9995" y2="88.0005" gradientUnits="userSpaceOnUse" x2="47.9995">
    <stop offset="0.0364" style="stop-color:#E8E8E8"/>
    <stop offset="0.2978" style="stop-color:#DEDEDE"/>
    <stop offset="0.7385" style="stop-color:#C4C4C4"/>
    <stop offset="1" style="stop-color:#B1B1B1"/>
   </linearGradient>
   <path fill="url(#HIGHLIGHT_GRA4_2_)" display="inline" id="HIGHLIGHT_GRA4_1_" d="M48,8C18.365,8,8,18.365,8,48&#xd;&#xa;&#x9;&#x9;&#x9;c0,29.633,10.365,40,40,40c29.637,0,40-10.367,40-40C88,18.365,77.637,8,48,8z M48,87.023C18.842,87.023,9,77.176,9,48&#xd;&#xa;&#x9;&#x9;&#x9;S18.842,8.977,48,8.977S87,18.824,87,48S77.158,87.023,48,87.023z"/>
  </g>
  <g id="GRAY3">
   <linearGradient id="GRAY_3_1_" y1="8.0107" x1="47.9995" y2="87.9897" gradientUnits="userSpaceOnUse" x2="47.9995">
    <stop offset="0.0364" style="stop-color:#E9E9E9"/>
    <stop offset="0.3218" style="stop-color:#DFDFDF"/>
    <stop offset="0.8028" style="stop-color:#C5C5C5"/>
    <stop offset="1" style="stop-color:#B8B8B8"/>
   </linearGradient>
   <path fill="url(#GRAY_3_1_)" display="inline" fill-rule="evenodd" id="GRAY_3" d="M8,47.989&#xd;&#xa;&#x9;&#x9;&#x9;c0,29.633,10.365,40,40,40c29.637,0,40-10.367,40-40c0-28.985-9.926-39.53-38.091-39.979h-3.817C17.928,8.459,8,19.004,8,47.989z"/>
   <linearGradient id="HIGHLIGHT_GRA3_2_" y1="8" x1="47.9995" y2="88.0005" gradientUnits="userSpaceOnUse" x2="47.9995">
    <stop offset="0.0364" style="stop-color:#EFEFEF"/>
    <stop offset="0.3133" style="stop-color:#E5E5E5"/>
    <stop offset="0.7799" style="stop-color:#CBCBCB"/>
    <stop offset="1" style="stop-color:#BCBCBC"/>
   </linearGradient>
   <path fill="url(#HIGHLIGHT_GRA3_2_)" display="inline" id="HIGHLIGHT_GRA3_1_" d="M48,8C18.365,8,8,18.365,8,48&#xd;&#xa;&#x9;&#x9;&#x9;c0,29.633,10.365,40,40,40c29.637,0,40-10.367,40-40C88,18.365,77.637,8,48,8z M48,87.023C18.842,87.023,9,77.176,9,48&#xd;&#xa;&#x9;&#x9;&#x9;S18.842,8.977,48,8.977S87,18.824,87,48S77.158,87.023,48,87.023z"/>
  </g>
  <g id="GRAY2">
   <linearGradient id="GRAY_2_1_" y1="8.0107" x1="47.9995" y2="87.9897" gradientUnits="userSpaceOnUse" x2="47.9995">
    <stop offset="0.0364" style="stop-color:#EEEEEE"/>
    <stop offset="0.3262" style="stop-color:#E4E4E4"/>
    <stop offset="0.8148" style="stop-color:#CACACA"/>
    <stop offset="1" style="stop-color:#BEBEBE"/>
   </linearGradient>
   <path fill="url(#GRAY_2_1_)" display="inline" fill-rule="evenodd" id="GRAY_2" d="M8,47.989&#xd;&#xa;&#x9;&#x9;&#x9;c0,29.633,10.365,40,40,40c29.637,0,40-10.367,40-40c0-28.985-9.926-39.53-38.091-39.979h-3.817C17.928,8.459,8,19.004,8,47.989z"/>
   <linearGradient id="HIGHLIGHT_GRA2_1_" y1="8" x1="47.9995" y2="88.0005" gradientUnits="userSpaceOnUse" x2="47.9995">
    <stop offset="0.0364" style="stop-color:#F2F2F2"/>
    <stop offset="0.3133" style="stop-color:#E8E8E8"/>
    <stop offset="0.7799" style="stop-color:#CECECE"/>
    <stop offset="1" style="stop-color:#BFBFBF"/>
   </linearGradient>
   <path fill="url(#HIGHLIGHT_GRA2_1_)" display="inline" id="HIGHLIGHT_GRA2" d="M48,8C18.365,8,8,18.365,8,48&#xd;&#xa;&#x9;&#x9;&#x9;c0,29.633,10.365,40,40,40c29.637,0,40-10.367,40-40C88,18.365,77.637,8,48,8z M48,87.023C18.842,87.023,9,77.176,9,48&#xd;&#xa;&#x9;&#x9;&#x9;S18.842,8.977,48,8.977S87,18.824,87,48S77.158,87.023,48,87.023z"/>
  </g>
  <g id="GRAY1">
   <linearGradient id="GRAY_1_1_" y1="8.0107" x1="47.9995" y2="87.9897" gradientUnits="userSpaceOnUse" x2="47.9995">
    <stop offset="0.0364" style="stop-color:#F9F9F9"/>
    <stop offset="0.2102" style="stop-color:#EFEFEF"/>
    <stop offset="0.5042" style="stop-color:#D6D6D5"/>
    <stop offset="0.8303" style="stop-color:#B2B2B0"/>
    <stop offset="1" style="stop-color:#ABABA8"/>
   </linearGradient>
   <path fill="url(#GRAY_1_1_)" display="inline" fill-rule="evenodd" id="GRAY_1" d="M8,47.989&#xd;&#xa;&#x9;&#x9;&#x9;c0,29.633,10.365,40,40,40c29.637,0,40-10.367,40-40c0-28.985-9.926-39.53-38.091-39.979h-3.817C17.928,8.459,8,19.004,8,47.989z"/>
   <linearGradient id="HIGHLIGHT_GRA1_1_" y1="8" x1="47.9995" y2="88.0005" gradientUnits="userSpaceOnUse" x2="47.9995">
    <stop offset="0.0364" style="stop-color:#FCFCFC"/>
    <stop offset="0.2262" style="stop-color:#F3F3F2"/>
    <stop offset="0.5471" style="stop-color:#DAD9D8"/>
    <stop offset="0.9576" style="stop-color:#B2B0AD"/>
    <stop offset="1" style="stop-color:#ADABA8"/>
   </linearGradient>
   <path fill="url(#HIGHLIGHT_GRA1_1_)" display="inline" id="HIGHLIGHT_GRA1" d="M48,8C18.365,8,8,18.365,8,48&#xd;&#xa;&#x9;&#x9;&#x9;c0,29.633,10.365,40,40,40c29.637,0,40-10.367,40-40C88,18.365,77.637,8,48,8z M48,87.023C18.842,87.023,9,77.176,9,48&#xd;&#xa;&#x9;&#x9;&#x9;S18.842,8.977,48,8.977S87,18.824,87,48S77.158,87.023,48,87.023z"/>
  </g>
 </g>
 <g display="none" id="ORANGE_BACKGROUNDS">
  <g display="inline" id="ORANGE_5">
   <linearGradient id="RED_x2F_ORANGE_5_2_" y1="8.0107" x1="47.9995" y2="87.9897" gradientUnits="userSpaceOnUse" x2="47.9995">
    <stop offset="0" style="stop-color:#FFDB62"/>
    <stop offset="0.1393" style="stop-color:#FAD15C"/>
    <stop offset="0.3741" style="stop-color:#EDB74D"/>
    <stop offset="0.4848" style="stop-color:#E6A844"/>
    <stop offset="1" style="stop-color:#C96B25"/>
   </linearGradient>
   <path fill="url(#RED_x2F_ORANGE_5_2_)" id="RED_x2F_ORANGE_5_1_" d="M8,47.988c0,29.634,10.365,40.001,40,40.001&#xd;&#xa;&#x9;&#x9;&#x9;c29.637,0,40-10.367,40-40.001c0-28.984-9.926-39.529-38.091-39.978h-3.817C17.928,8.459,8,19.004,8,47.988z"/>
   <linearGradient id="HIGHLIGHTS_RO5_1_" y1="8.2559" x1="47.9995" y2="87.5043" gradientUnits="userSpaceOnUse" x2="47.9995">
    <stop offset="0" style="stop-color:#FFFFFF"/>
    <stop offset="0.0958" style="stop-color:#FDF8F5"/>
    <stop offset="0.2579" style="stop-color:#F6E6DB"/>
    <stop offset="0.4666" style="stop-color:#EBC9AF"/>
    <stop offset="0.7136" style="stop-color:#DCA073"/>
    <stop offset="0.9904" style="stop-color:#CA6D28"/>
    <stop offset="1" style="stop-color:#C96B25"/>
   </linearGradient>
   <path stroke-opacity="0.25" fill="url(#HIGHLIGHTS_RO5_1_)" fill-opacity="0.25" id="HIGHLIGHTS_RO5" d="M48,8C18.365,8,8,18.365,8,48&#xd;&#xa;&#x9;&#x9;&#x9;c0,29.633,10.365,40,40,40c29.637,0,40-10.367,40-40C88,18.365,77.637,8,48,8z M48,87.023C18.842,87.023,9,77.176,9,48&#xd;&#xa;&#x9;&#x9;&#x9;S18.842,8.977,48,8.977S87,18.824,87,48S77.158,87.023,48,87.023z"/>
  </g>
  <g id="ORANGE_4">
   <linearGradient id="RED_x2F_ORANGE_4_1_" y1="8.0107" x1="47.9995" y2="87.9897" gradientUnits="userSpaceOnUse" x2="47.9995">
    <stop offset="0.0364" style="stop-color:#FBBF60"/>
    <stop offset="0.2109" style="stop-color:#F8B556"/>
    <stop offset="0.503" style="stop-color:#F19B3D"/>
    <stop offset="1" style="stop-color:#C76121"/>
   </linearGradient>
   <path fill="url(#RED_x2F_ORANGE_4_1_)" display="inline" id="RED_x2F_ORANGE_4_2_" d="M8,47.988c0,29.634,10.365,40.001,40,40.001&#xd;&#xa;&#x9;&#x9;&#x9;c29.637,0,40-10.367,40-40.001c0-28.984-9.926-39.529-38.091-39.978h-3.817C17.928,8.459,8,19.004,8,47.988z"/>
   <linearGradient id="HIGHLIGHTS_RO4_2_" y1="8.2559" x1="47.9995" y2="87.5043" gradientUnits="userSpaceOnUse" x2="47.9995">
    <stop offset="0.0364" style="stop-color:#FFFFFF"/>
    <stop offset="0.1274" style="stop-color:#FDF8F5"/>
    <stop offset="0.2815" style="stop-color:#F6E5DB"/>
    <stop offset="0.4799" style="stop-color:#EBC6AF"/>
    <stop offset="0.7147" style="stop-color:#DC9C73"/>
    <stop offset="0.9778" style="stop-color:#C96628"/>
    <stop offset="1" style="stop-color:#C76121"/>
   </linearGradient>
   <path stroke-opacity="0.25" fill="url(#HIGHLIGHTS_RO4_2_)" display="inline" fill-opacity="0.25" id="HIGHLIGHTS_RO4_1_" d="M48,8C18.365,8,8,18.365,8,48&#xd;&#xa;&#x9;&#x9;&#x9;c0,29.633,10.365,40,40,40c29.637,0,40-10.367,40-40C88,18.365,77.637,8,48,8z M48,87.023C18.842,87.023,9,77.176,9,48&#xd;&#xa;&#x9;&#x9;&#x9;S18.842,8.977,48,8.977S87,18.824,87,48S77.158,87.023,48,87.023z"/>
  </g>
  <g id="ORANGE_3">
   <linearGradient id="RED_x2F_ORANGE_3_2_" y1="8.0107" x1="47.9995" y2="87.9897" gradientUnits="userSpaceOnUse" x2="47.9995">
    <stop offset="0.0364" style="stop-color:#F6B85E"/>
    <stop offset="0.2008" style="stop-color:#F4AE5A"/>
    <stop offset="0.478" style="stop-color:#EE9451"/>
    <stop offset="0.5394" style="stop-color:#EC8D4E"/>
    <stop offset="0.8228" style="stop-color:#D46A3B"/>
    <stop offset="1" style="stop-color:#C95932"/>
   </linearGradient>
   <path fill="url(#RED_x2F_ORANGE_3_2_)" display="inline" id="RED_x2F_ORANGE_3_1_" d="M8,47.988c0,29.634,10.365,40.001,40,40.001&#xd;&#xa;&#x9;&#x9;&#x9;c29.637,0,40-10.367,40-40.001c0-28.984-9.926-39.529-38.091-39.978h-3.817C17.928,8.459,8,19.004,8,47.988z"/>
   <linearGradient id="HIGHLIGHTS_RO3_2_" y1="8.2559" x1="47.9995" y2="87.5043" gradientUnits="userSpaceOnUse" x2="47.9995">
    <stop offset="0.0364" style="stop-color:#FFFFFF"/>
    <stop offset="0.133" style="stop-color:#FCF7F5"/>
    <stop offset="0.2967" style="stop-color:#F5E2DB"/>
    <stop offset="0.5073" style="stop-color:#EABFAF"/>
    <stop offset="0.7537" style="stop-color:#DA8F74"/>
    <stop offset="1" style="stop-color:#C95932"/>
   </linearGradient>
   <path stroke-opacity="0.25" fill="url(#HIGHLIGHTS_RO3_2_)" display="inline" fill-opacity="0.25" id="HIGHLIGHTS_RO3_1_" d="M48,8C18.365,8,8,18.365,8,48&#xd;&#xa;&#x9;&#x9;&#x9;c0,29.633,10.365,40,40,40c29.637,0,40-10.367,40-40C88,18.365,77.637,8,48,8z M48,87.023C18.842,87.023,9,77.176,9,48&#xd;&#xa;&#x9;&#x9;&#x9;S18.842,8.977,48,8.977S87,18.824,87,48S77.158,87.023,48,87.023z"/>
  </g>
  <g id="ORANGE_2">
   <linearGradient id="RED_x2F_ORANGE_2_1_" y1="8.0107" x1="47.9995" y2="87.9897" gradientUnits="userSpaceOnUse" x2="47.9995">
    <stop offset="0.0364" style="stop-color:#FAA824"/>
    <stop offset="0.3742" style="stop-color:#EA8A20"/>
    <stop offset="1" style="stop-color:#C74A17"/>
   </linearGradient>
   <path fill="url(#RED_x2F_ORANGE_2_1_)" display="inline" id="RED_x2F_ORANGE_2_2_" d="M8,47.988c0,29.634,10.365,40.001,40,40.001&#xd;&#xa;&#x9;&#x9;&#x9;c29.637,0,40-10.367,40-40.001c0-28.984-9.926-39.529-38.091-39.978h-3.817C17.928,8.459,8,19.004,8,47.988z"/>
   <linearGradient id="HIGHLIGHTS_RO2_1_" y1="8.2559" x1="47.9995" y2="87.5043" gradientUnits="userSpaceOnUse" x2="47.9995">
    <stop offset="0.0364" style="stop-color:#FFFFFF"/>
    <stop offset="0.185" style="stop-color:#F8E8E1"/>
    <stop offset="0.5097" style="stop-color:#E5AC95"/>
    <stop offset="0.9833" style="stop-color:#C84D1B"/>
    <stop offset="1" style="stop-color:#C74A17"/>
   </linearGradient>
   <path stroke-opacity="0.25" fill="url(#HIGHLIGHTS_RO2_1_)" display="inline" fill-opacity="0.25" id="HIGHLIGHTS_RO2_2_" d="M48,8C18.365,8,8,18.365,8,48&#xd;&#xa;&#x9;&#x9;&#x9;c0,29.633,10.365,40,40,40c29.637,0,40-10.367,40-40C88,18.365,77.637,8,48,8z M48,87.023C18.842,87.023,9,77.176,9,48&#xd;&#xa;&#x9;&#x9;&#x9;S18.842,8.977,48,8.977S87,18.824,87,48S77.158,87.023,48,87.023z"/>
  </g>
  <g id="ORANGE_1">
   <linearGradient id="RED_x2F_ORANGE_1_2_" y1="8.0107" x1="47.9995" y2="87.9897" gradientUnits="userSpaceOnUse" x2="47.9995">
    <stop offset="0.0364" style="stop-color:#FF8A36"/>
    <stop offset="0.3489" style="stop-color:#EF7130"/>
    <stop offset="1" style="stop-color:#C73321"/>
   </linearGradient>
   <path fill="url(#RED_x2F_ORANGE_1_2_)" display="inline" id="RED_x2F_ORANGE_1_1_" d="M8,47.988c0,29.634,10.365,40.001,40,40.001&#xd;&#xa;&#x9;&#x9;&#x9;c29.637,0,40-10.367,40-40.001c0-28.984-9.926-39.529-38.091-39.978h-3.817C17.928,8.459,8,19.004,8,47.988z"/>
   <linearGradient id="HIGHLIGHTS_RO1_2_" y1="8.2559" x1="47.9995" y2="87.5043" gradientUnits="userSpaceOnUse" x2="47.9995">
    <stop offset="0.0364" style="stop-color:#FFFFFF"/>
    <stop offset="0.1274" style="stop-color:#FCF7F5"/>
    <stop offset="0.2815" style="stop-color:#F5E0DB"/>
    <stop offset="0.4799" style="stop-color:#EABBAF"/>
    <stop offset="0.7147" style="stop-color:#DA8873"/>
    <stop offset="0.9778" style="stop-color:#C64828"/>
    <stop offset="1" style="stop-color:#C44221"/>
   </linearGradient>
   <path stroke-opacity="0.25" fill="url(#HIGHLIGHTS_RO1_2_)" display="inline" fill-opacity="0.25" id="HIGHLIGHTS_RO1_1_" d="M48,8C18.365,8,8,18.365,8,48&#xd;&#xa;&#x9;&#x9;&#x9;c0,29.633,10.365,40,40,40c29.637,0,40-10.367,40-40C88,18.365,77.637,8,48,8z M48,87.023C18.842,87.023,9,77.176,9,48&#xd;&#xa;&#x9;&#x9;&#x9;S18.842,8.977,48,8.977S87,18.824,87,48S77.158,87.023,48,87.023z"/>
  </g>
 </g>
 <g display="none" id="GREEN_BACKGROUNDS">
  <g display="inline" id="GREEN4">
   <linearGradient id="GREEN_4_1_" y1="8.0107" x1="47.9995" y2="87.9897" gradientUnits="userSpaceOnUse" x2="47.9995">
    <stop offset="0.0364" style="stop-color:#6BAB40"/>
    <stop offset="0.6061" style="stop-color:#537734"/>
    <stop offset="1" style="stop-color:#4F5C26"/>
   </linearGradient>
   <path fill="url(#GREEN_4_1_)" fill-rule="evenodd" id="GREEN_4_3_" d="M8,47.989c0,29.633,10.365,40,40,40&#xd;&#xa;&#x9;&#x9;&#x9;c29.637,0,40-10.367,40-40c0-28.985-9.926-39.53-38.091-39.979h-3.817C17.928,8.459,8,19.004,8,47.989z"/>
   <linearGradient id="HIGHLIGHT_GR4_1_" y1="8" x1="47.9995" y2="88.0005" gradientUnits="userSpaceOnUse" x2="47.9995">
    <stop offset="0.0364" style="stop-color:#FFFFFF"/>
    <stop offset="0.8255" style="stop-color:#6F7A4E"/>
    <stop offset="1" style="stop-color:#4F5C26"/>
   </linearGradient>
   <path stroke-opacity="0.25" fill="url(#HIGHLIGHT_GR4_1_)" fill-opacity="0.25" id="HIGHLIGHT_GR4" d="M48,8C18.365,8,8,18.365,8,48c0,29.633,10.365,40,40,40&#xd;&#xa;&#x9;&#x9;&#x9;c29.637,0,40-10.367,40-40C88,18.365,77.637,8,48,8z M48,87.023C18.842,87.023,9,77.176,9,48S18.842,8.977,48,8.977&#xd;&#xa;&#x9;&#x9;&#x9;S87,18.824,87,48S77.158,87.023,48,87.023z"/>
  </g>
  <g id="GREEN3">
   <linearGradient id="GREEN_3_1_" y1="8.0107" x1="47.9995" y2="87.9897" gradientUnits="userSpaceOnUse" x2="47.9995">
    <stop offset="0.0364" style="stop-color:#70B83B"/>
    <stop offset="0.2066" style="stop-color:#6AAE37"/>
    <stop offset="0.4945" style="stop-color:#5B942B"/>
    <stop offset="0.8626" style="stop-color:#426917"/>
    <stop offset="1" style="stop-color:#38570F"/>
   </linearGradient>
   <path fill="url(#GREEN_3_1_)" display="inline" fill-rule="evenodd" id="GREEN_3_2_" d="M8,47.989&#xd;&#xa;&#x9;&#x9;&#x9;c0,29.633,10.365,40,40,40c29.637,0,40-10.367,40-40c0-28.985-9.926-39.53-38.091-39.979h-3.817C17.928,8.459,8,19.004,8,47.989z"/>
   <linearGradient id="HIGHLIGHT_GR3_1_" y1="8" x1="47.9995" y2="88.0005" gradientUnits="userSpaceOnUse" x2="47.9995">
    <stop offset="0.0364" style="stop-color:#FFFFFF"/>
    <stop offset="0.1222" style="stop-color:#F7F8F5"/>
    <stop offset="0.2675" style="stop-color:#E1E5DB"/>
    <stop offset="0.4545" style="stop-color:#BDC7AF"/>
    <stop offset="0.6759" style="stop-color:#8B9D73"/>
    <stop offset="0.9238" style="stop-color:#4D6828"/>
    <stop offset="1" style="stop-color:#38570F"/>
   </linearGradient>
   <path stroke-opacity="0.25" fill="url(#HIGHLIGHT_GR3_1_)" display="inline" fill-opacity="0.25" id="HIGHLIGHT_GR3" d="M48,8C18.365,8,8,18.365,8,48&#xd;&#xa;&#x9;&#x9;&#x9;c0,29.633,10.365,40,40,40c29.637,0,40-10.367,40-40C88,18.365,77.637,8,48,8z M48,87.023C18.842,87.023,9,77.176,9,48&#xd;&#xa;&#x9;&#x9;&#x9;S18.842,8.977,48,8.977S87,18.824,87,48S77.158,87.023,48,87.023z"/>
  </g>
  <g id="GREEN2">
   <linearGradient id="GREEN_2_1_" y1="8.0107" x1="47.9995" y2="87.9897" gradientUnits="userSpaceOnUse" x2="47.9995">
    <stop offset="0.0364" style="stop-color:#75B561"/>
    <stop offset="0.223" style="stop-color:#6EAB5E"/>
    <stop offset="0.5376" style="stop-color:#5B9157"/>
    <stop offset="0.6667" style="stop-color:#528454"/>
    <stop offset="1" style="stop-color:#4B6145"/>
   </linearGradient>
   <path fill="url(#GREEN_2_1_)" display="inline" fill-rule="evenodd" id="GREEN_2_2_" d="M8,47.989&#xd;&#xa;&#x9;&#x9;&#x9;c0,29.633,10.365,40,40,40c29.637,0,40-10.367,40-40c0-28.985-9.926-39.53-38.091-39.979h-3.817C17.928,8.459,8,19.004,8,47.989z"/>
   <linearGradient id="HIGHLIGHT_GR2_1_" y1="8" x1="47.9995" y2="88.0005" gradientUnits="userSpaceOnUse" x2="47.9995">
    <stop offset="0.0364" style="stop-color:#FFFFFF"/>
    <stop offset="0.1404" style="stop-color:#F5F7F5"/>
    <stop offset="0.3165" style="stop-color:#DCE0DB"/>
    <stop offset="0.543" style="stop-color:#B2BBAF"/>
    <stop offset="0.8084" style="stop-color:#798974"/>
    <stop offset="1" style="stop-color:#4B6145"/>
   </linearGradient>
   <path stroke-opacity="0.25" fill="url(#HIGHLIGHT_GR2_1_)" display="inline" fill-opacity="0.25" id="HIGHLIGHT_GR2" d="M48,8C18.365,8,8,18.365,8,48&#xd;&#xa;&#x9;&#x9;&#x9;c0,29.633,10.365,40,40,40c29.637,0,40-10.367,40-40C88,18.365,77.637,8,48,8z M48,87.023C18.842,87.023,9,77.176,9,48&#xd;&#xa;&#x9;&#x9;&#x9;S18.842,8.977,48,8.977S87,18.824,87,48S77.158,87.023,48,87.023z"/>
  </g>
  <g id="GREEN1">
   <linearGradient id="GREEN_1_1_" y1="8.0107" x1="47.9995" y2="87.9897" gradientUnits="userSpaceOnUse" x2="47.9995">
    <stop offset="0.0364" style="stop-color:#9CD061"/>
    <stop offset="0.219" style="stop-color:#94C957"/>
    <stop offset="0.5269" style="stop-color:#7DB63D"/>
    <stop offset="0.6909" style="stop-color:#6FAA2C"/>
    <stop offset="1" style="stop-color:#4A8021"/>
   </linearGradient>
   <path fill="url(#GREEN_1_1_)" display="inline" fill-rule="evenodd" id="GREEN_1_2_" d="M8,47.989&#xd;&#xa;&#x9;&#x9;&#x9;c0,29.633,10.365,40,40,40c29.637,0,40-10.367,40-40c0-28.985-9.926-39.53-38.091-39.979h-3.817C17.928,8.459,8,19.004,8,47.989z"/>
   <linearGradient id="HIGHLIGHT_GR1_1_" y1="8" x1="47.9995" y2="88.0005" gradientUnits="userSpaceOnUse" x2="47.9995">
    <stop offset="0.0364" style="stop-color:#FFFFFF"/>
    <stop offset="0.1274" style="stop-color:#F7F9F5"/>
    <stop offset="0.2815" style="stop-color:#E1EADB"/>
    <stop offset="0.4799" style="stop-color:#BED1AF"/>
    <stop offset="0.7147" style="stop-color:#8DAF73"/>
    <stop offset="0.9778" style="stop-color:#4F8428"/>
    <stop offset="1" style="stop-color:#4A8021"/>
   </linearGradient>
   <path stroke-opacity="0.25" fill="url(#HIGHLIGHT_GR1_1_)" display="inline" fill-opacity="0.25" id="HIGHLIGHT_GR1" d="M48,8C18.365,8,8,18.365,8,48&#xd;&#xa;&#x9;&#x9;&#x9;c0,29.633,10.365,40,40,40c29.637,0,40-10.367,40-40C88,18.365,77.637,8,48,8z M48,87.023C18.842,87.023,9,77.176,9,48&#xd;&#xa;&#x9;&#x9;&#x9;S18.842,8.977,48,8.977S87,18.824,87,48S77.158,87.023,48,87.023z"/>
  </g>
 </g>
 <g id="BLUE_BACKGROUNDS">
  <g id="BLUE_4_2_">
   <linearGradient id="BLUE_4_3_" y1="8.0107" x1="47.9995" y2="87.9897" gradientUnits="userSpaceOnUse" x2="47.9995">
    <stop offset="0.0364" style="stop-color:#4791D9"/>
    <stop offset="0.2496" style="stop-color:#4288CF"/>
    <stop offset="0.6102" style="stop-color:#366EB5"/>
    <stop offset="1" style="stop-color:#264C91"/>
   </linearGradient>
   <path fill="url(#BLUE_4_3_)" id="BLUE_4_1_" d="M8,47.989c0,29.633,10.365,40,40,40c29.637,0,40-10.367,40-40&#xd;&#xa;&#x9;&#x9;&#x9;c0-28.985-9.926-39.53-38.091-39.979h-3.817C17.928,8.459,8,19.004,8,47.989z"/>
   <linearGradient id="HIGHLIGHT_BLU4_1_" y1="8.2559" x1="47.9995" y2="87.5043" gradientUnits="userSpaceOnUse" x2="47.9995">
    <stop offset="0.0364" style="stop-color:#FFFFFF"/>
    <stop offset="0.129" style="stop-color:#F5F7FA"/>
    <stop offset="0.2858" style="stop-color:#DBE1ED"/>
    <stop offset="0.4876" style="stop-color:#AFBDD7"/>
    <stop offset="0.7265" style="stop-color:#738CB8"/>
    <stop offset="0.9942" style="stop-color:#284D92"/>
    <stop offset="1" style="stop-color:#264C91"/>
   </linearGradient>
   <path stroke-opacity="0.25" fill="url(#HIGHLIGHT_BLU4_1_)" fill-opacity="0.25" id="HIGHLIGHT_BLU4" d="M48,8C18.365,8,8,18.365,8,48&#xd;&#xa;&#x9;&#x9;&#x9;c0,29.633,10.365,40,40,40c29.637,0,40-10.367,40-40C88,18.365,77.637,8,48,8z M48,87.023C18.842,87.023,9,77.176,9,48&#xd;&#xa;&#x9;&#x9;&#x9;S18.842,8.977,48,8.977S87,18.824,87,48S77.158,87.023,48,87.023z"/>
  </g>
  <g display="none" id="BLUE_3_2_">
   <linearGradient id="BLUE_3_3_" y1="8.0107" x1="47.9995" y2="87.9897" gradientUnits="userSpaceOnUse" x2="47.9995">
    <stop offset="0.0364" style="stop-color:#66A2D3"/>
    <stop offset="0.2002" style="stop-color:#5C9BCE"/>
    <stop offset="0.4773" style="stop-color:#4289C1"/>
    <stop offset="0.8316" style="stop-color:#176CAB"/>
    <stop offset="1" style="stop-color:#005DA0"/>
   </linearGradient>
   <path fill="url(#BLUE_3_3_)" display="inline" id="BLUE_3_1_" d="M8,47.989c0,29.633,10.365,40,40,40c29.637,0,40-10.367,40-40&#xd;&#xa;&#x9;&#x9;&#x9;c0-28.985-9.926-39.53-38.091-39.979h-3.817C17.928,8.459,8,19.004,8,47.989z"/>
   <linearGradient id="HIGHLIGHT_BLU3_1_" y1="8.2559" x1="47.9995" y2="87.5043" gradientUnits="userSpaceOnUse" x2="47.9995">
    <stop offset="0.0364" style="stop-color:#FFFFFF"/>
    <stop offset="0.1184" style="stop-color:#F5F9FC"/>
    <stop offset="0.2572" style="stop-color:#DBE9F5"/>
    <stop offset="0.4359" style="stop-color:#AFCFEA"/>
    <stop offset="0.6475" style="stop-color:#73ACDA"/>
    <stop offset="0.8842" style="stop-color:#287FC6"/>
    <stop offset="1" style="stop-color:#0067BC"/>
   </linearGradient>
   <path stroke-opacity="0.25" fill="url(#HIGHLIGHT_BLU3_1_)" display="inline" fill-opacity="0.25" id="HIGHLIGHT_BLU3" d="M48,8C18.365,8,8,18.365,8,48&#xd;&#xa;&#x9;&#x9;&#x9;c0,29.633,10.365,40,40,40c29.637,0,40-10.367,40-40C88,18.365,77.637,8,48,8z M48,87.023C18.842,87.023,9,77.176,9,48&#xd;&#xa;&#x9;&#x9;&#x9;S18.842,8.977,48,8.977S87,18.824,87,48S77.158,87.023,48,87.023z"/>
  </g>
  <g display="none" id="BLUE_2_2_">
   <linearGradient id="BLUE_2_3_" y1="8.0107" x1="47.9995" y2="87.9897" gradientUnits="userSpaceOnUse" x2="47.9995">
    <stop offset="0.0364" style="stop-color:#63B3E0"/>
    <stop offset="0.204" style="stop-color:#59ACDA"/>
    <stop offset="0.4875" style="stop-color:#3F99C9"/>
    <stop offset="0.8499" style="stop-color:#147BAE"/>
    <stop offset="1" style="stop-color:#006DA2"/>
   </linearGradient>
   <path fill="url(#BLUE_2_3_)" display="inline" id="BLUE_2_1_" d="M8,47.989c0,29.633,10.365,40,40,40c29.637,0,40-10.367,40-40&#xd;&#xa;&#x9;&#x9;&#x9;c0-28.985-9.926-39.53-38.091-39.979h-3.817C17.928,8.459,8,19.004,8,47.989z"/>
   <linearGradient id="HIGHLIGHT_BLU2_1_" y1="8.2559" x1="47.9995" y2="87.5043" gradientUnits="userSpaceOnUse" x2="47.9995">
    <stop offset="0.0364" style="stop-color:#FFFFFF"/>
    <stop offset="0.1233" style="stop-color:#F5F9FB"/>
    <stop offset="0.2704" style="stop-color:#DBE7F0"/>
    <stop offset="0.4598" style="stop-color:#AFCBDD"/>
    <stop offset="0.6841" style="stop-color:#73A4C4"/>
    <stop offset="0.9352" style="stop-color:#2873A4"/>
    <stop offset="1" style="stop-color:#13659B"/>
   </linearGradient>
   <path stroke-opacity="0.25" fill="url(#HIGHLIGHT_BLU2_1_)" display="inline" fill-opacity="0.25" id="HIGHLIGHT_BLU2" d="M48,8C18.365,8,8,18.365,8,48&#xd;&#xa;&#x9;&#x9;&#x9;c0,29.633,10.365,40,40,40c29.637,0,40-10.367,40-40C88,18.365,77.637,8,48,8z M48,87.023C18.842,87.023,9,77.176,9,48&#xd;&#xa;&#x9;&#x9;&#x9;S18.842,8.977,48,8.977S87,18.824,87,48S77.158,87.023,48,87.023z"/>
  </g>
  <g display="none" id="BLUE_1_1_">
   <linearGradient id="BLUE_1_3_" y1="8.0107" x1="47.9995" y2="87.9897" gradientUnits="userSpaceOnUse" x2="47.9995">
    <stop offset="0.0364" style="stop-color:#6BCFDB"/>
    <stop offset="0.1944" style="stop-color:#61C7D4"/>
    <stop offset="0.4617" style="stop-color:#47B0C3"/>
    <stop offset="0.8033" style="stop-color:#1C8CA6"/>
    <stop offset="1" style="stop-color:#007594"/>
   </linearGradient>
   <path fill="url(#BLUE_1_3_)" display="inline" id="BLUE_1_2_" d="M8,47.989c0,29.633,10.365,40,40,40c29.637,0,40-10.367,40-40&#xd;&#xa;&#x9;&#x9;&#x9;c0-28.985-9.926-39.53-38.091-39.979h-3.817C17.928,8.459,8,19.004,8,47.989z"/>
   <linearGradient id="HIGHLIGHT_BLU1_1_" y1="8.2559" x1="47.9995" y2="87.5043" gradientUnits="userSpaceOnUse" x2="47.9995">
    <stop offset="0.0364" style="stop-color:#FFFDF2"/>
    <stop offset="0.1064" style="stop-color:#F5F8F0"/>
    <stop offset="0.2248" style="stop-color:#DBEBE9"/>
    <stop offset="0.3771" style="stop-color:#AFD5DF"/>
    <stop offset="0.5394" style="stop-color:#7ABAD2"/>
    <stop offset="1" style="stop-color:#00879A"/>
   </linearGradient>
   <path stroke-opacity="0.25" fill="url(#HIGHLIGHT_BLU1_1_)" display="inline" fill-opacity="0.25" id="HIGHLIGHT_BLU1" d="M48,8C18.365,8,8,18.365,8,48&#xd;&#xa;&#x9;&#x9;&#x9;c0,29.633,10.365,40,40,40c29.637,0,40-10.367,40-40C88,18.365,77.637,8,48,8z M48,87.023C18.842,87.023,9,77.176,9,48&#xd;&#xa;&#x9;&#x9;&#x9;S18.842,8.977,48,8.977S87,18.824,87,48S77.158,87.023,48,87.023z"/>
  </g>
 </g>
 <g display="none" id="VIOLET_x2F_PINK_BACKGROUNDS">
  <g display="inline" id="PINK_2_2_">
   <linearGradient id="PINK_2_3_" y1="8.0107" x1="47.9995" y2="87.9897" gradientUnits="userSpaceOnUse" x2="47.9995">
    <stop offset="0.0364" style="stop-color:#FF61C7"/>
    <stop offset="0.1942" style="stop-color:#F759C1"/>
    <stop offset="0.4381" style="stop-color:#E145B1"/>
    <stop offset="0.7357" style="stop-color:#BE2396"/>
    <stop offset="1" style="stop-color:#99007A"/>
   </linearGradient>
   <path fill="url(#PINK_2_3_)" id="PINK_2_1_" d="M8,47.988c0,29.634,10.365,40.001,40,40.001c29.637,0,40-10.367,40-40.001&#xd;&#xa;&#x9;&#x9;&#x9;c0-28.984-9.926-39.529-38.091-39.978h-3.817C17.928,8.459,8,19.004,8,47.988z"/>
   <linearGradient id="HIGHLIGHT_PI2_2_" y1="8.2554" x1="47.9995" y2="87.5043" gradientUnits="userSpaceOnUse" x2="47.9995">
    <stop offset="0.0364" style="stop-color:#FFFFFF"/>
    <stop offset="0.119" style="stop-color:#FCF7FB"/>
    <stop offset="0.2468" style="stop-color:#F3E1F0"/>
    <stop offset="0.4038" style="stop-color:#E5BEDD"/>
    <stop offset="0.5839" style="stop-color:#D18CC3"/>
    <stop offset="0.7837" style="stop-color:#B84DA2"/>
    <stop offset="0.9971" style="stop-color:#99017B"/>
    <stop offset="1" style="stop-color:#99007A"/>
   </linearGradient>
   <path stroke-opacity="0.25" fill="url(#HIGHLIGHT_PI2_2_)" fill-opacity="0.25" id="HIGHLIGHT_PI2_1_" d="M48,8C18.365,8,8,18.365,8,48&#xd;&#xa;&#x9;&#x9;&#x9;c0,29.632,10.365,40,40,40c29.637,0,40-10.367,40-40C88,18.365,77.637,8,48,8z M48,87.023C18.842,87.023,9,77.176,9,48&#xd;&#xa;&#x9;&#x9;&#x9;C9,18.824,18.842,8.976,48,8.976S87,18.824,87,48C87,77.176,77.158,87.023,48,87.023z"/>
  </g>
  <g id="PINK_1_2_">
   <linearGradient id="PINK_1_3_" y1="8.0107" x1="47.9995" y2="87.9897" gradientUnits="userSpaceOnUse" x2="47.9995">
    <stop offset="0.0364" style="stop-color:#E64DD4"/>
    <stop offset="0.2159" style="stop-color:#DE46CE"/>
    <stop offset="0.4932" style="stop-color:#C832BC"/>
    <stop offset="0.8319" style="stop-color:#A5129F"/>
    <stop offset="1" style="stop-color:#91008F"/>
   </linearGradient>
   <path fill="url(#PINK_1_3_)" display="inline" id="PINK_1_1_" d="M8,47.989c0,29.633,10.365,40,40,40c29.637,0,40-10.367,40-40&#xd;&#xa;&#x9;&#x9;&#x9;c0-28.985-9.926-39.53-38.091-39.979h-3.817C17.928,8.459,8,19.004,8,47.989z"/>
   <linearGradient id="HIGHLIGHT_PI2_3_" y1="8.2554" x1="47.9995" y2="87.5043" gradientUnits="userSpaceOnUse" x2="47.9995">
    <stop offset="0.0364" style="stop-color:#FFFFFF"/>
    <stop offset="0.119" style="stop-color:#FCF7FC"/>
    <stop offset="0.2468" style="stop-color:#F2E1F2"/>
    <stop offset="0.4038" style="stop-color:#E3BEE2"/>
    <stop offset="0.5839" style="stop-color:#CE8CCD"/>
    <stop offset="0.7837" style="stop-color:#B24DB1"/>
    <stop offset="0.9971" style="stop-color:#91018F"/>
    <stop offset="1" style="stop-color:#91008F"/>
   </linearGradient>
   <path stroke-opacity="0.25" fill="url(#HIGHLIGHT_PI2_3_)" display="inline" fill-opacity="0.25" id="HIGHLIGHT_PI2" d="M48,8C18.365,8,8,18.365,8,48&#xd;&#xa;&#x9;&#x9;&#x9;c0,29.632,10.365,40,40,40c29.637,0,40-10.367,40-40C88,18.365,77.637,8,48,8z M48,87.023C18.842,87.023,9,77.176,9,48&#xd;&#xa;&#x9;&#x9;&#x9;C9,18.824,18.842,8.976,48,8.976S87,18.824,87,48C87,77.176,77.158,87.023,48,87.023z"/>
  </g>
  <g id="VIOLET_2_2_">
   <linearGradient id="VIOLET_2_3_" y1="8.0107" x1="47.9995" y2="90.757" gradientUnits="userSpaceOnUse" x2="47.9995">
    <stop offset="0.0364" style="stop-color:#BA66E0"/>
    <stop offset="0.2174" style="stop-color:#B260D8"/>
    <stop offset="0.497" style="stop-color:#9D51C2"/>
    <stop offset="0.8385" style="stop-color:#7C379F"/>
    <stop offset="1" style="stop-color:#69298C"/>
   </linearGradient>
   <path fill="url(#VIOLET_2_3_)" display="inline" id="VIOLET_2_1_" d="M8,47.989c0,29.633,10.365,40,40,40&#xd;&#xa;&#x9;&#x9;&#x9;c29.637,0,40-10.367,40-40c0-28.985-9.926-39.53-38.091-39.979h-3.817C17.928,8.459,8,19.004,8,47.989z"/>
   <linearGradient id="HIGHLIGHT_VIO2_1_" y1="8.2554" x1="47.9995" y2="87.5043" gradientUnits="userSpaceOnUse" x2="47.9995">
    <stop offset="0.0364" style="stop-color:#FFFFFF"/>
    <stop offset="0.1299" style="stop-color:#F9F7FB"/>
    <stop offset="0.2745" style="stop-color:#EAE1EF"/>
    <stop offset="0.452" style="stop-color:#D1BEDC"/>
    <stop offset="0.6558" style="stop-color:#AF8CC1"/>
    <stop offset="0.8786" style="stop-color:#834EA0"/>
    <stop offset="1" style="stop-color:#69298C"/>
   </linearGradient>
   <path stroke-opacity="0.25" fill="url(#HIGHLIGHT_VIO2_1_)" display="inline" fill-opacity="0.25" id="HIGHLIGHT_VIO2" d="M48,8C18.365,8,8,18.365,8,48&#xd;&#xa;&#x9;&#x9;&#x9;c0,29.632,10.365,40,40,40c29.637,0,40-10.367,40-40C88,18.365,77.637,8,48,8z M48,87.023C18.842,87.023,9,77.176,9,48&#xd;&#xa;&#x9;&#x9;&#x9;C9,18.824,18.842,8.976,48,8.976S87,18.824,87,48C87,77.176,77.158,87.023,48,87.023z"/>
  </g>
  <g id="VIOLET_1_2_">
   <linearGradient id="VIOLET_1_3_" y1="9.7622" x1="47.9995" y2="89.7412" gradientUnits="userSpaceOnUse" x2="47.9995">
    <stop offset="0.0364" style="stop-color:#A14DDB"/>
    <stop offset="0.2205" style="stop-color:#9949D3"/>
    <stop offset="0.505" style="stop-color:#833CBE"/>
    <stop offset="0.8523" style="stop-color:#60299D"/>
    <stop offset="1" style="stop-color:#4F1F8C"/>
   </linearGradient>
   <path fill="url(#VIOLET_1_3_)" display="inline" id="VIOLET_1_1_" d="M8,47.989c0,29.633,10.365,40,40,40&#xd;&#xa;&#x9;&#x9;&#x9;c29.637,0,40-10.367,40-40c0-28.985-9.926-39.53-38.091-39.979h-3.817C17.928,8.459,8,19.004,8,47.989z"/>
   <linearGradient id="HIGHLIGHT_VIO1_1_" y1="8.2554" x1="47.9995" y2="87.5043" gradientUnits="userSpaceOnUse" x2="47.9995">
    <stop offset="0.0364" style="stop-color:#FFFFFF"/>
    <stop offset="1" style="stop-color:#4A1F8C"/>
   </linearGradient>
   <path stroke-opacity="0.25" fill="url(#HIGHLIGHT_VIO1_1_)" display="inline" fill-opacity="0.25" id="HIGHLIGHT_VIO1" d="M48,8C18.365,8,8,18.365,8,48&#xd;&#xa;&#x9;&#x9;&#x9;c0,29.632,10.365,40,40,40c29.637,0,40-10.367,40-40C88,18.365,77.637,8,48,8z M48,87.023C18.842,87.023,9,77.176,9,48&#xd;&#xa;&#x9;&#x9;&#x9;C9,18.824,18.842,8.977,48,8.977S87,18.824,87,48C87,77.176,77.158,87.023,48,87.023z"/>
  </g>
 </g>
 <g id="PLACE_YOUR_GRAPHIC_HERE">
  <path fill="#FFFFFF" stroke="#000000" stroke-width="0.25" d="M44.508,20.756v2.558h5.114v-2.558H44.508z&#xd;&#xa;&#x9;&#x9; M36.835,41.216v2.045c0.067,0.116-0.083,0.409,0,0.512c0.033,0.041,0.45,0,0.511,0h1.023c0.15,0,0.367-0.037,0.511,0&#xd;&#xa;&#x9;&#x9;c0.091,0.022,0.45-0.063,0.512,0v-2.558H36.835z M31.719,43.774v5.115h2.559v-5.115H31.719z M34.278,25.871h-7.674v7.672h7.674&#xd;&#xa;&#x9;&#x9;V25.871z M75.199,20.756H57.297v17.903h17.902V20.756z M72.641,36.1H59.854V23.313h12.787V36.1z M70.084,25.871h-7.673v7.672h7.673&#xd;&#xa;&#x9;&#x9;V25.871z M39.393,20.756H21.49v17.903h17.903V20.756z M36.835,36.1H24.047V23.313h12.788V36.1z M26.604,69.35h7.674v-7.673h-7.674&#xd;&#xa;&#x9;&#x9;V69.35z M21.49,74.465h17.903V56.561H21.49V74.465z M24.047,59.118h12.788v12.788H24.047V59.118z M54.738,41.216V36.1H52.18v5.116&#xd;&#xa;&#x9;&#x9;H54.738z M31.719,51.958c-0.066-0.117,0.084-0.41,0-0.513c-0.032-0.04-0.45,0-0.51,0c-0.166,0-0.348,0.02-0.512,0&#xd;&#xa;&#x9;&#x9;c-0.165-0.02-0.346,0-0.512,0h-1.022v-5.114h-2.046c-0.116,0.067-0.409-0.083-0.512,0c-0.041,0.033,0,0.452,0,0.512&#xd;&#xa;&#x9;&#x9;c0,0.156,0.031,0.358,0,0.512c-0.031,0.152,0,0.354,0,0.511c0,0.15,0.037,0.366,0,0.511c-0.022,0.091,0.063,0.45,0,0.512&#xd;&#xa;&#x9;&#x9;c-0.085,0.085-0.409-0.068-0.511,0h-2.046c0.085,0.085-0.069,0.409,0,0.512v2.045H21.49v2.558h10.229V51.958z M29.163,41.216&#xd;&#xa;&#x9;&#x9;h-5.116v2.558h5.116V41.216z M21.49,43.774v5.115h1.023c0.165,0,0.347-0.02,0.512,0c0.167,0.02,0.342-0.009,0.511,0&#xd;&#xa;&#x9;&#x9;c0.075,0.004,0.463-0.048,0.512,0v-5.115H21.49z M64.968,61.677v-2.559h-2.557v2.559H64.968z M44.508,74.465h2.557v-1.023&#xd;&#xa;&#x9;&#x9;c0-0.165-0.019-0.349,0-0.511c0.02-0.168-0.009-0.345,0-0.513c0.004-0.073-0.048-0.464,0-0.512h-2.557V74.465z M59.854,59.118&#xd;&#xa;&#x9;&#x9;v-2.558h-2.557v2.558H59.854z M70.084,59.118v-2.558h-2.558v2.558H70.084z M41.95,66.792v5.114h2.558v-5.114H41.95z M72.641,59.118&#xd;&#xa;&#x9;&#x9;h2.559v-2.558h-2.559V59.118z M75.199,71.906c-0.034-0.041-0.452,0-0.512,0h-1.022c-0.15,0-0.366,0.036-0.513,0&#xd;&#xa;&#x9;&#x9;c-0.092-0.023-0.45,0.062-0.512,0c-0.085-0.085,0.067-0.409,0-0.512V69.35h2.559v-2.558h-5.115v2.558h-2.558v-2.558h2.558v-2.557&#xd;&#xa;&#x9;&#x9;h5.115v-2.559h-7.673v2.559h-2.559v2.557h-2.557v-2.557h-2.558v-2.559h-2.047c-0.116,0.065-0.409-0.085-0.51,0&#xd;&#xa;&#x9;&#x9;c-0.042,0.034,0,0.451,0,0.511c0,0.165,0.018,0.35,0,0.512c-0.021,0.164,0,0.346,0,0.512v1.024h-2.559v2.557H52.18v-2.557h-7.672&#xd;&#xa;&#x9;&#x9;v2.557h5.114v2.558h-2.557v2.557c0.086-0.085,0.41,0.067,0.512,0h2.045v2.559h25.577v-2.047&#xd;&#xa;&#x9;&#x9;C75.132,72.303,75.282,72.008,75.199,71.906z M54.738,71.906H52.18V69.35h2.559V71.906z M59.854,69.35h-2.557v-2.558h2.557V69.35z&#xd;&#xa;&#x9;&#x9; M64.968,71.906h-2.557V69.35h2.557V71.906z M54.738,61.677H52.18v2.559h2.559V61.677z M47.065,51.445v-2.557H41.95v7.672h2.558&#xd;&#xa;&#x9;&#x9;v-5.115H47.065z M45.019,43.774h2.046v5.115h2.557v2.557h5.116v2.558h15.346v-5.114h-2.558v-2.558h2.558v-2.046&#xd;&#xa;&#x9;&#x9;c-0.067-0.117,0.083-0.41,0-0.511c-0.034-0.041-0.451,0-0.513,0c-0.164,0-0.347,0.02-0.511,0c-0.165-0.02-0.347,0-0.512,0h-1.022&#xd;&#xa;&#x9;&#x9;v-2.558h-2.559v5.115h-2.557v-5.115h-5.114v2.558h-2.559v5.115H52.18v-7.672h-2.558V36.1h2.558v-2.557h2.559V20.756h-2.047&#xd;&#xa;&#x9;&#x9;c-0.116,0.066-0.409-0.084-0.512,0c-0.04,0.033,0,0.451,0,0.511v1.023c0,0.15,0.037,0.366,0,0.511&#xd;&#xa;&#x9;&#x9;c-0.022,0.091,0.063,0.449,0,0.512c-0.085,0.085-0.408-0.069-0.511,0h-2.047v2.557h2.558v5.115h-2.558v1.023&#xd;&#xa;&#x9;&#x9;c0,0.165,0.02,0.347,0,0.512c-0.02,0.167,0.01,0.343,0,0.512c-0.004,0.074,0.05,0.462,0,0.511c-0.085,0.086-0.408-0.067-0.512,0&#xd;&#xa;&#x9;&#x9;h-2.045v-7.672h-2.046c-0.116,0.067-0.409-0.083-0.511,0c-0.041,0.034,0,0.452,0,0.512c0,0.166,0.02,0.347,0,0.512&#xd;&#xa;&#x9;&#x9;c-0.02,0.163,0,0.345,0,0.512v1.022H41.95v2.046c0.067,0.116-0.083,0.409,0,0.511c0.033,0.041,0.452,0,0.512,0h1.023&#xd;&#xa;&#x9;&#x9;c0.149,0,0.365-0.037,0.512,0c0.09,0.023,0.448-0.063,0.511,0c0.085,0.085-0.068,0.41,0,0.512v2.045H41.95v7.673h1.023&#xd;&#xa;&#x9;&#x9;c0.164,0,0.348-0.02,0.512,0c0.167,0.02,0.343-0.009,0.512,0c0.074,0.004,0.462-0.049,0.511,0c0.085,0.085-0.068,0.409,0,0.511&#xd;&#xa;&#x9;&#x9;v2.047C44.593,43.688,44.917,43.842,45.019,43.774z M62.411,48.889h2.557v2.557h-2.557V48.889z M57.297,46.331h2.557v2.558h-2.557&#xd;&#xa;&#x9;&#x9;V46.331z M44.508,38.659V36.1h2.557v2.559H44.508z M75.199,51.445h-2.559v2.558h2.559V51.445z M75.199,48.889v-2.558h-5.115v2.558&#xd;&#xa;&#x9;&#x9;H75.199z M47.065,56.561h-2.557v5.116h5.114V51.445h-2.557V56.561z M39.393,51.445c-0.034-0.04-0.452,0-0.512,0h-1.023&#xd;&#xa;&#x9;&#x9;c-0.15,0-0.366,0.037-0.511,0c-0.09-0.021-0.449,0.063-0.511,0v2.558h2.558v-2.045C39.326,51.841,39.476,51.548,39.393,51.445z&#xd;&#xa;&#x9;&#x9; M41.95,46.331h2.558v-1.023c0-0.165-0.02-0.347,0-0.511c0.021-0.167-0.009-0.343,0-0.511c0.004-0.075-0.048-0.463,0-0.511h-5.115&#xd;&#xa;&#x9;&#x9;c0.085,0.085-0.068,0.408,0,0.511v2.046h-2.558v1.023c0,0.165,0.02,0.348,0,0.511c-0.02,0.167,0.009,0.343,0,0.511&#xd;&#xa;&#x9;&#x9;c-0.004,0.074,0.048,0.464,0,0.512h5.115V46.331z M36.835,50.935v-2.046c-0.085,0.085-0.41-0.068-0.512,0h-2.045v2.557h2.557&#xd;&#xa;&#x9;&#x9;C36.75,51.36,36.903,51.038,36.835,50.935z" stroke-miterlimit="10"/>
 </g>
 <g id="DO_NOT_EDIT_-_FOCAL_ZONE_GUIDES_ONLY"/>
</svg>
